# xmcd
#
# Track frame offsets:
#  150
#  19976
#  41942
#  65430
#  85758
#  104800
#  124917
#  145792
#  165253
#  183130
#
# Disc length: 2683 seconds
#
# Revision: 0
# Processed by: cddbd v1.5.1PL2 Copyright (c) Steve Scherf et al.
# Submitted via: Collectorz.com Music Collector 6.9
#
DISCID=860a790a
DTITLE=Bill Avery - Southern Fried Soul
DYEAR=2004
DGENRE=Soul - Soul-Blues
TTITLE0=Can't Get Enough
TTITLE1=Old Fashion Love
TTITLE2=Time
TTITLE3=Two Strangers
TTITLE4=Good Woman
TTITLE5=Nine Pound Steel
TTITLE6=Don't Love You No More
TTITLE7=Gotta Make A Come Back
TTITLE8=Knock On Wood
TTITLE9=Stuck On You
EXTD=
EXTT0=
EXTT1=
EXTT2=
EXTT3=
EXTT4=
EXTT5=
EXTT6=
EXTT7=
EXTT8=
EXTT9=
PLAYORDER=
